<svg width="1440" height="654" viewBox="0 0 1440 654" fill="none" xmlns="http://www.w3.org/2000/svg">
<path opacity="0.3" fill-rule="evenodd" clip-rule="evenodd" d="M1189.87 -44.8218C1190.49 -13.0403 1191.04 25.1959 1186.01 71.4829C1180.96 117.905 1156.77 151.716 1120.08 175.323C1083.4 198.917 1034.23 212.316 979.179 217.976C869.077 229.297 735.276 209.675 630.326 178.492C525.542 147.358 442.715 160.248 369.42 195.39C300.539 228.415 240.071 281.091 177.69 335.433L177.69 335.434C173.662 338.942 169.627 342.457 165.581 345.975C112.037 392.523 42.729 392.431 -22.0458 373.494C-86.8245 354.556 -147.18 316.744 -182.968 287.666L-182.337 286.89C-146.623 315.908 -86.3842 353.643 -21.7652 372.534C42.8577 391.427 111.751 391.447 164.925 345.22C168.92 341.747 172.906 338.275 176.883 334.81L176.918 334.78L177.034 334.679L177.062 334.654C239.414 280.336 299.979 227.574 368.987 194.488C442.497 159.244 525.579 146.326 630.611 177.533C735.476 208.692 869.141 228.285 979.077 216.982C1034.05 211.33 1083.04 197.957 1119.53 174.481C1156.01 151.017 1180 117.46 1185.01 71.3749C1190.04 25.1552 1189.49 -13.0273 1188.87 -44.8023L1188.84 -46.6068L1188.81 -48.2645C1188.21 -78.4088 1187.73 -102.729 1192.31 -122.579C1197.07 -143.234 1207.31 -159.064 1228.52 -171.643C1249.69 -184.199 1281.78 -193.512 1330.22 -201.222L1330.38 -200.235C1281.96 -192.528 1250.03 -183.238 1229.03 -170.783C1208.07 -158.35 1197.99 -142.757 1193.29 -122.354C1188.74 -102.63 1189.21 -78.425 1189.81 -48.2031V-48.2021V-48.2012V-48.198L1189.87 -44.8218ZM1230.09 22.212C1230.71 53.9935 1231.26 92.2296 1226.23 138.517C1221.18 184.939 1196.99 218.75 1160.3 242.356C1123.62 265.951 1074.45 279.35 1019.4 285.01C909.297 296.331 775.497 276.709 670.546 245.526C565.762 214.392 482.935 227.282 409.64 262.423C340.759 295.448 280.291 348.125 217.91 402.467C213.883 405.976 209.847 409.491 205.801 413.008C152.258 459.557 82.9493 459.465 18.1745 440.528C-46.6042 421.59 -106.959 383.778 -142.748 354.7L-142.117 353.924C-106.403 382.942 -46.1639 420.677 18.4551 439.568C83.078 458.461 151.971 458.481 205.145 412.254C209.141 408.781 213.126 405.309 217.104 401.844L217.138 401.814L217.254 401.713L217.283 401.688C279.634 347.37 340.2 294.608 409.208 261.522C482.717 226.278 565.799 213.36 670.831 244.567C775.696 275.725 909.361 295.319 1019.3 284.015C1074.27 278.363 1123.26 264.991 1159.75 241.515C1196.23 218.051 1220.22 184.493 1225.23 138.409C1230.26 92.1889 1229.71 54.0064 1229.09 22.2314C1229.07 21.0689 1229.05 19.9149 1229.03 18.7692C1228.43 -11.3751 1227.95 -35.6958 1232.53 -55.5452C1237.3 -76.2005 1247.53 -92.0298 1268.74 -104.609C1289.91 -117.166 1322 -126.478 1370.44 -134.189L1370.6 -133.201C1322.18 -125.494 1290.25 -116.204 1269.25 -103.749C1248.29 -91.3163 1238.21 -75.7235 1233.51 -55.3205C1228.96 -35.5959 1229.43 -11.3903 1230.03 18.8325V18.8357L1230.09 22.212ZM1266.45 205.551C1271.48 159.264 1270.93 121.027 1270.31 89.246L1270.25 85.8698V85.8665V85.8656V85.8647C1269.65 55.6427 1269.18 31.4377 1273.73 11.7135C1278.43 -8.68948 1288.51 -24.2823 1309.47 -36.715C1330.47 -49.1705 1362.4 -58.4603 1410.82 -66.1671L1410.66 -67.1547C1362.22 -59.4438 1330.13 -50.1317 1308.96 -37.5751C1287.75 -24.9958 1277.52 -9.16653 1272.75 11.4888C1268.17 31.3382 1268.65 55.6589 1269.25 85.8032C1269.27 86.9489 1269.29 88.1029 1269.31 89.2654C1269.93 121.04 1270.48 159.223 1265.45 205.443C1260.44 251.527 1236.45 285.085 1199.98 308.549C1163.48 332.025 1114.49 345.397 1059.52 351.049C949.581 362.353 815.917 342.759 711.051 311.601C606.019 280.394 522.937 293.311 449.428 328.556C380.42 361.642 319.855 414.404 257.504 468.721L257.503 468.722C253.466 472.239 249.421 475.763 245.366 479.288C192.191 525.515 123.298 525.495 58.6755 506.602C-5.94354 487.711 -66.1823 449.976 -101.897 420.958L-102.527 421.734C-66.739 450.812 -6.38382 488.624 58.3949 507.562C123.17 526.499 192.478 526.591 246.022 480.042C250.068 476.525 254.103 473.01 258.13 469.501L258.131 469.501C320.512 415.159 380.98 362.482 449.861 329.457C523.156 294.316 605.982 281.426 710.766 312.56C815.717 343.743 949.518 363.365 1059.62 352.044C1114.67 346.384 1163.84 332.985 1200.52 309.39C1237.21 285.784 1261.4 251.973 1266.45 205.551ZM1310.53 156.28C1311.15 188.061 1311.7 226.297 1306.67 272.584C1301.62 319.007 1277.43 352.818 1240.74 376.424C1204.06 400.018 1154.89 413.418 1099.84 419.078C989.738 430.398 855.938 410.777 750.987 379.594C646.203 348.46 563.376 361.35 490.081 396.491C421.2 429.516 360.732 482.193 298.351 536.535C294.323 540.044 290.288 543.559 286.242 547.076C232.698 593.624 163.39 593.533 98.6152 574.596C33.8365 555.658 -26.5187 517.846 -62.307 488.768L-61.6764 487.991C-25.962 517.009 34.2768 554.745 98.8958 573.636C163.519 592.528 232.412 592.548 285.586 546.322C289.641 542.796 293.686 539.273 297.723 535.755L297.724 535.755C360.075 481.438 420.641 428.675 489.648 395.589C563.158 360.345 646.24 347.427 751.272 378.635C856.137 409.793 989.802 429.387 1099.74 418.083C1154.71 412.431 1203.7 399.059 1240.2 375.583C1276.67 352.119 1300.66 318.561 1305.67 272.476C1310.7 226.257 1310.15 188.074 1309.53 156.299L1309.51 155.013L1309.47 152.837C1308.87 122.693 1308.39 98.3721 1312.97 78.5226C1317.74 57.8673 1327.98 42.038 1349.18 29.4587C1370.35 16.9021 1402.44 7.59001 1450.88 -0.12088L1451.04 0.866699C1402.62 8.57359 1370.69 17.8634 1349.69 30.3188C1328.73 42.7515 1318.65 58.3444 1313.95 78.7473C1309.4 98.472 1309.87 122.677 1310.47 152.9V152.904L1310.53 156.28ZM1346.89 339.618C1351.92 293.331 1351.37 255.095 1350.75 223.314L1350.69 219.937V219.934C1350.09 189.711 1349.62 165.506 1354.17 145.781C1358.87 125.378 1368.95 109.785 1389.91 97.3527C1410.91 84.8972 1442.84 75.6075 1491.26 67.9005L1491.1 66.913C1442.66 74.6239 1410.57 83.936 1389.4 96.4926C1368.2 109.072 1357.96 124.901 1353.19 145.556C1348.62 165.406 1349.09 189.727 1349.69 219.871C1349.71 221.017 1349.73 222.171 1349.76 223.333C1350.37 255.108 1350.92 293.291 1345.89 339.51C1340.88 385.595 1316.89 419.153 1280.42 442.617C1243.92 466.093 1194.93 479.465 1139.96 485.117C1030.02 496.42 896.357 476.827 791.492 445.669C686.46 414.461 603.378 427.379 529.869 462.623C460.861 495.709 400.295 548.472 337.944 602.789L337.858 602.864C333.849 606.356 329.833 609.855 325.806 613.355C272.632 659.582 203.739 659.562 139.116 640.67C74.4971 621.778 14.2584 584.043 -21.4561 555.025L-22.0867 555.801C13.7016 584.879 74.0569 622.691 138.836 641.63C203.61 660.566 272.919 660.658 326.462 614.11C330.509 610.593 334.544 607.077 338.571 603.569C400.952 549.227 461.42 496.55 530.301 463.525C603.596 428.384 686.423 415.493 791.207 446.627C896.158 477.811 1029.96 497.432 1140.06 486.112C1195.11 480.452 1244.28 467.052 1280.96 443.458C1317.65 419.852 1341.84 386.04 1346.89 339.618Z" fill="url(#paint0_linear)"/>
<defs>
<linearGradient id="paint0_linear" x1="881" y1="-87.5" x2="716" y2="560" gradientUnits="userSpaceOnUse">
<stop stop-color="#F7F7F9"/>
<stop offset="1" stop-color="#0F1837"/>
</linearGradient>
</defs>
</svg>
